<svg width="8" height="13" viewBox="0 0 8 13" fill="none" xmlns="http://www.w3.org/2000/svg">
<path d="M5.80001 12.3833L0.183343 6.78333C0.116677 6.71667 0.0693436 6.64444 0.0413436 6.56667C0.0133436 6.48889 -0.000434028 6.40556 1.04168e-05 6.31667C1.04168e-05 6.22778 0.0137881 6.14444 0.0413436 6.06667C0.0688992 5.98889 0.116232 5.91667 0.183343 5.85L5.80001 0.233333C5.95557 0.0777777 6.15001 0 6.38334 0C6.61668 0 6.81668 0.0833333 6.98334 0.25C7.15001 0.416667 7.23334 0.611111 7.23334 0.833333C7.23334 1.05556 7.15001 1.25 6.98334 1.41667L2.08334 6.31667L6.98334 11.2167C7.1389 11.3722 7.21668 11.564 7.21668 11.792C7.21668 12.02 7.13334 12.2171 6.96668 12.3833C6.80001 12.55 6.60557 12.6333 6.38334 12.6333C6.16112 12.6333 5.96668 12.55 5.80001 12.3833Z" fill="black"/>
</svg>
