<svg width="8" height="13" viewBox="0 0 8 13" fill="none" xmlns="http://www.w3.org/2000/svg">
<path d="M1.43333 0.249967L7.04999 5.84997C7.11666 5.91663 7.16399 5.98886 7.19199 6.06663C7.21999 6.14441 7.23377 6.22775 7.23333 6.31663C7.23333 6.40552 7.21955 6.48886 7.19199 6.56663C7.16444 6.64441 7.11711 6.71663 7.04999 6.7833L1.43333 12.4C1.27777 12.5555 1.08333 12.6333 0.849994 12.6333C0.616661 12.6333 0.416661 12.55 0.249994 12.3833C0.0833273 12.2166 -5.72205e-06 12.0222 -5.72205e-06 11.8C-5.72205e-06 11.5777 0.0833273 11.3833 0.249994 11.2166L5.14999 6.31663L0.249994 1.41663C0.0944386 1.26108 0.0166607 1.0693 0.0166607 0.841301C0.0166607 0.6133 0.0999937 0.416189 0.266661 0.249967C0.433327 0.0832996 0.627771 -3.33786e-05 0.849994 -3.33786e-05C1.07222 -3.33786e-05 1.26666 0.0832996 1.43333 0.249967Z" fill="black"/>
</svg>
